<?xml version="1.0" encoding="utf-8" ?>
<svg baseProfile="full" height="894" version="1.1" viewBox="0 0 685 670" width="914" xmlns="http://www.w3.org/2000/svg" xmlns:ev="http://www.w3.org/2001/xml-events" xmlns:xlink="http://www.w3.org/1999/xlink"><defs /><path d="M 252.00,336.50 L 288.50,260.00 L 302.50,221.00 L 302.50,180.00 L 291.50,157.00 L 267.00,138.50 L 239.00,137.50 L 188.00,83.50 L 144.00,56.50 L 85.00,44.50 L 59.00,44.50 L 41.00,49.50 L 38.50,55.00 L 46.00,59.50 L 96.00,57.50 L 146.00,71.50 L 188.00,98.50 L 227.50,139.00 L 224.00,143.50 L 195.00,117.50 L 168.00,99.50 L 114.00,78.50 L 50.00,76.50 L 31.00,80.50 L 20.50,89.00 L 26.00,96.50 L 69.00,87.50 L 120.00,92.50 L 165.00,111.50 L 214.50,147.00 L 195.50,166.00 L 186.50,183.00 L 182.50,198.00 L 183.50,237.00 L 194.50,272.00 L 209.50,299.00 L 232.00,324.50 L 252.00,336.50 Z " fill="#FFB703" stroke="none" /><path d="M 310.00,417.50 L 336.50,382.00 L 376.00,348.50 L 420.00,324.50 L 472.50,307.00 L 437.00,291.50 L 405.00,285.50 L 370.00,288.50 L 348.00,297.50 L 321.50,321.00 L 306.50,349.00 L 302.50,395.00 L 310.00,417.50 Z " fill="#FFB703" stroke="none" /><path d="M 411.50,520.00 L 432.50,488.00 L 466.00,459.50 L 514.00,435.50 L 564.50,421.00 L 545.50,381.00 L 524.00,351.50 L 475.00,360.50 L 424.00,381.50 L 385.00,408.50 L 357.50,441.00 L 342.50,470.00 L 376.00,500.50 L 411.00,522.50 L 411.50,520.00 Z " fill="#FFB703" stroke="none" /><path d="M 557.50,599.00 L 570.50,570.00 L 583.00,558.50 L 594.50,555.00 L 579.00,473.50 L 547.00,480.50 L 504.00,498.50 L 481.00,514.50 L 458.50,543.00 L 504.00,560.50 L 557.50,599.00 Z " fill="#FFB703" stroke="none" /><path d="M 214.00,233.50 L 227.50,227.00 L 237.50,205.00 L 236.50,183.00 L 231.50,174.00 L 221.00,167.50 L 211.00,169.50 L 201.50,178.00 L 193.50,200.00 L 198.50,226.00 L 207.00,233.50 L 214.00,233.50 Z " fill="#1F2937" stroke="none" /><path d="M 602.00,543.50 L 634.50,516.00 L 648.50,495.00 L 657.50,472.00 L 661.50,427.00 L 651.50,383.00 L 627.50,342.00 L 589.00,306.50 L 547.00,284.50 L 498.50,270.00 L 560.00,237.50 L 588.00,215.50 L 607.50,194.00 L 633.50,146.00 L 639.50,119.00 L 639.50,91.00 L 630.50,59.00 L 611.00,32.50 L 584.00,17.50 L 547.00,14.50 L 491.00,29.50 L 444.00,53.50 L 400.00,87.50 L 357.50,136.00 L 321.50,201.00 L 300.50,259.00 L 285.50,334.00 L 283.50,394.00 L 300.50,330.00 L 321.50,276.00 L 348.50,228.00 L 375.50,192.00 L 411.00,156.50 L 463.00,120.50 L 523.00,96.50 L 545.00,92.50 L 560.00,95.50 L 569.50,105.00 L 570.50,126.00 L 545.50,177.00 L 509.00,218.50 L 435.50,277.00 L 472.00,291.50 L 500.00,308.50 L 542.50,346.00 L 563.50,373.00 L 581.50,405.00 L 597.50,452.00 L 603.50,492.00 L 602.00,543.50 Z " fill="#1F2937" stroke="none" /><path d="M 345.50,468.00 L 354.50,446.00 L 368.50,426.00 L 400.00,396.50 L 449.00,369.50 L 486.00,357.50 L 522.00,351.50 L 521.50,349.00 L 500.00,327.50 L 472.00,307.50 L 434.00,318.50 L 376.00,348.50 L 336.50,382.00 L 309.50,418.00 L 326.50,450.00 L 343.00,469.50 L 345.50,468.00 Z " fill="#1F2937" stroke="none" /><path d="M 460.00,540.50 L 481.00,514.50 L 504.00,498.50 L 538.00,483.50 L 579.50,473.00 L 564.00,421.50 L 522.00,432.50 L 481.00,450.50 L 450.00,471.50 L 425.50,496.00 L 411.50,522.00 L 457.00,542.50 L 460.00,540.50 Z " fill="#1F2937" stroke="none" /><path d="M 592.50,651.00 L 596.50,620.00 L 593.00,554.50 L 570.50,570.00 L 556.50,600.00 L 575.50,623.00 L 592.00,653.50 L 592.50,651.00 Z " fill="#1F2937" stroke="none" /></svg>